<svg viewBox="0 0 480 600" xmlns="http://www.w3.org/2000/svg" role="img" aria-label="">
  <defs>
    <linearGradient id="bg-agyi-poloska-irtas" x1="0" y1="0" x2="0" y2="1">
      <stop offset="0%" stop-color="#1d2126"/>
      <stop offset="60%" stop-color="#141619"/>
      <stop offset="100%" stop-color="#0c0d0f"/>
    </linearGradient>
    <radialGradient id="glow-agyi-poloska-irtas" cx="50%" cy="70%" r="65%">
      <stop offset="0%" stop-color="#F28C28" stop-opacity=".28"/>
      <stop offset="55%" stop-color="#F28C28" stop-opacity=".07"/>
      <stop offset="100%" stop-color="#F28C28" stop-opacity="0"/>
    </radialGradient>
    <radialGradient id="vig-agyi-poloska-irtas" cx="50%" cy="46%" r="75%">
      <stop offset="55%" stop-color="#000" stop-opacity="0"/>
      <stop offset="100%" stop-color="#000" stop-opacity=".45"/>
    </radialGradient>
    <filter id="grain-agyi-poloska-irtas">
      <feTurbulence type="fractalNoise" baseFrequency="0.85" numOctaves="2" stitchTiles="stitch" result="n"/>
      <feColorMatrix in="n" type="matrix" values="0 0 0 0 0  0 0 0 0 0  0 0 0 0 0  0 0 0 .05 0"/>
    </filter>
  </defs>
  <rect width="480" height="600" fill="url(#bg-agyi-poloska-irtas)"/>
  <rect width="480" height="600" fill="url(#glow-agyi-poloska-irtas)"/>
  <circle cx="240" cy="276" r="205" fill="none" stroke="#F28C28" stroke-width="1.5" stroke-dasharray="3 11" opacity=".35"/>
  <g>
      <g transform="translate(70,400)">
        <rect x="0" y="20" width="340" height="80" rx="14" fill="#20242a" stroke="#F3F1EA" stroke-width="4"/>
        <rect x="0" y="0" width="340" height="26" rx="13" fill="#262a30" stroke="#F3F1EA" stroke-width="4"/>
        <g fill="#F3F1EA" opacity=".5">
          <circle cx="40" cy="13" r="3.5"/><circle cx="100" cy="13" r="3.5"/><circle cx="160" cy="13" r="3.5"/>
          <circle cx="220" cy="13" r="3.5"/><circle cx="280" cy="13" r="3.5"/>
        </g>
      </g>
      <g transform="translate(150,150)">
        <circle cx="90" cy="90" r="88" fill="rgba(242,140,40,.05)" stroke="#F28C28" stroke-width="5"/>
        <rect x="150" y="150" width="20" height="70" rx="9" transform="rotate(45 150 150)" fill="#F28C28"/>
        <g transform="translate(56,50)">
          <ellipse cx="34" cy="46" rx="30" ry="40" fill="#241b12" stroke="#F28C28" stroke-width="4"/>
          <path d="M34 10v72" stroke="#F28C28" stroke-width="2" opacity=".6"/>
          <path d="M10 25 0 15M58 25l10-10M8 46H-6M60 46h14M10 67 0 77M58 67l10 10" stroke="#F3F1EA" stroke-width="3.5" stroke-linecap="round"/>
          <path d="M22 6 12 -8M46 6l10-14" stroke="#F3F1EA" stroke-width="3.5" stroke-linecap="round"/>
        </g>
      </g>
    </g>
  <rect width="480" height="600" fill="url(#vig-agyi-poloska-irtas)"/>
  <rect width="480" height="600" filter="url(#grain-agyi-poloska-irtas)"/>
</svg>
