<svg viewBox="0 0 480 600" xmlns="http://www.w3.org/2000/svg" role="img" aria-label="">
  <defs>
    <linearGradient id="bg-csotanyirtas" x1="0" y1="0" x2="0" y2="1">
      <stop offset="0%" stop-color="#17325a"/>
      <stop offset="60%" stop-color="#0e2240"/>
      <stop offset="100%" stop-color="#07162b"/>
    </linearGradient>
    <radialGradient id="glow-csotanyirtas" cx="55%" cy="60%" r="65%">
      <stop offset="0%" stop-color="#FFC629" stop-opacity=".28"/>
      <stop offset="55%" stop-color="#FFC629" stop-opacity=".07"/>
      <stop offset="100%" stop-color="#FFC629" stop-opacity="0"/>
    </radialGradient>
    <radialGradient id="vig-csotanyirtas" cx="50%" cy="46%" r="75%">
      <stop offset="55%" stop-color="#000" stop-opacity="0"/>
      <stop offset="100%" stop-color="#000" stop-opacity=".45"/>
    </radialGradient>
    <filter id="grain-csotanyirtas">
      <feTurbulence type="fractalNoise" baseFrequency="0.85" numOctaves="2" stitchTiles="stitch" result="n"/>
      <feColorMatrix in="n" type="matrix" values="0 0 0 0 0  0 0 0 0 0  0 0 0 0 0  0 0 0 .05 0"/>
    </filter>
  </defs>
  <rect width="480" height="600" fill="url(#bg-csotanyirtas)"/>
  <rect width="480" height="600" fill="url(#glow-csotanyirtas)"/>
  <circle cx="240" cy="276" r="205" fill="none" stroke="#FFC629" stroke-width="1.5" stroke-dasharray="3 11" opacity=".35"/>
  <g>
      <g stroke="#EAF1FA" stroke-width="3" opacity=".22">
        <path d="M0 340h480M0 380h480M0 420h480M60 300v320M180 300v320M300 300v320M420 300v320"/>
      </g>
      <rect x="0" y="440" width="480" height="18" fill="#1b3a66"/>
      <g transform="translate(140,300) scale(1.15)">
        <ellipse cx="60" cy="90" rx="46" ry="72" fill="#241b12" stroke="#FFC629" stroke-width="5"/>
        <path d="M60 24v132M28 40 96 40" stroke="#FFC629" stroke-width="2" opacity=".5"/>
        <path d="M20 50 -20 30M100 50l40-20M14 90h-40M106 90h40M20 130l-40 20M100 130l40 20" stroke="#EAF1FA" stroke-width="4.5" stroke-linecap="round"/>
        <path d="M38 20 10 -30M82 20l28-50" stroke="#EAF1FA" stroke-width="4.5" stroke-linecap="round"/>
      </g>
      <g transform="translate(300,150)" stroke="#FFC629" stroke-width="6" fill="none" stroke-linecap="round">
        <circle cx="40" cy="40" r="38"/>
        <path d="M14 14 66 66"/>
      </g>
    </g>
  <rect width="480" height="600" fill="url(#vig-csotanyirtas)"/>
  <rect width="480" height="600" filter="url(#grain-csotanyirtas)"/>
</svg>
